<svg width="500" height="500" viewBox="0 0 500 500" fill="none" xmlns="http://www.w3.org/2000/svg">
<g clip-path="url(#clip0_1_2)">
<path d="M189.245 475H29.2318V23.6138H190.567C235.97 23.6138 275.055 32.6504 307.822 50.7235C340.588 68.6496 365.788 94.4368 383.42 128.085C401.199 161.733 410.089 201.994 410.089 248.866C410.089 295.886 401.199 336.293 383.42 370.088C365.788 403.883 340.441 429.817 307.381 447.89C274.467 465.963 235.089 475 189.245 475ZM124.666 393.23H185.277C213.489 393.23 237.219 388.235 256.468 378.243C275.863 368.104 290.41 352.456 300.108 331.297C309.952 309.991 314.875 282.514 314.875 248.866C314.875 215.512 309.952 188.255 300.108 167.096C290.41 145.938 275.937 130.363 256.688 120.371C237.44 110.379 213.709 105.384 185.498 105.384H124.666V393.23Z" fill="white"/>
<mask id="path-2-outside-1_1_2" maskUnits="userSpaceOnUse" x="21.2318" y="15.6138" width="472" height="468" fill="black">
<rect fill="white" x="21.2318" y="15.6138" width="472" height="468"/>
<path fill-rule="evenodd" clip-rule="evenodd" d="M29.2318 475H189.245C235.089 475 274.467 465.963 307.381 447.89C340.441 429.817 365.788 403.883 383.42 370.088C385.045 366.999 386.595 363.856 388.072 360.657H408.239V284.642C408.263 284.42 408.287 284.197 408.31 283.974H484.922V238.968H409.954C409.711 230.136 409.139 221.549 408.239 213.206V162.285H397.714C393.853 150.213 389.089 138.813 383.42 128.085C365.788 94.4368 340.588 68.6496 307.822 50.7235C275.055 32.6504 235.97 23.6138 190.567 23.6138H29.2318V475ZM363.233 238.968V162.285H397.714C402.774 178.104 406.282 195.078 408.239 213.206V238.968H409.954C410.044 242.234 410.089 245.533 410.089 248.866C410.089 261.01 409.496 272.712 408.31 283.974H408.239V284.642C405.217 312.733 398.495 338.071 388.072 360.657H363.233V283.974H312.816C314.188 273.132 314.875 261.429 314.875 248.866C314.875 245.505 314.825 242.205 314.725 238.968H363.233ZM314.725 238.968C313.832 210.08 308.96 186.123 300.108 167.096C290.41 145.938 275.937 130.363 256.688 120.371C237.44 110.379 213.709 105.384 185.498 105.384H124.666V393.23H185.277C213.489 393.23 237.219 388.235 256.468 378.243C275.863 368.104 290.41 352.456 300.108 331.297C306.277 317.946 310.513 302.172 312.816 283.974H286.55V238.968H314.725Z"/>
</mask>
<path fill-rule="evenodd" clip-rule="evenodd" d="M29.2318 475H189.245C235.089 475 274.467 465.963 307.381 447.89C340.441 429.817 365.788 403.883 383.42 370.088C385.045 366.999 386.595 363.856 388.072 360.657H408.239V284.642C408.263 284.42 408.287 284.197 408.31 283.974H484.922V238.968H409.954C409.711 230.136 409.139 221.549 408.239 213.206V162.285H397.714C393.853 150.213 389.089 138.813 383.42 128.085C365.788 94.4368 340.588 68.6496 307.822 50.7235C275.055 32.6504 235.97 23.6138 190.567 23.6138H29.2318V475ZM363.233 238.968V162.285H397.714C402.774 178.104 406.282 195.078 408.239 213.206V238.968H409.954C410.044 242.234 410.089 245.533 410.089 248.866C410.089 261.01 409.496 272.712 408.31 283.974H408.239V284.642C405.217 312.733 398.495 338.071 388.072 360.657H363.233V283.974H312.816C314.188 273.132 314.875 261.429 314.875 248.866C314.875 245.505 314.825 242.205 314.725 238.968H363.233ZM314.725 238.968C313.832 210.08 308.96 186.123 300.108 167.096C290.41 145.938 275.937 130.363 256.688 120.371C237.44 110.379 213.709 105.384 185.498 105.384H124.666V393.23H185.277C213.489 393.23 237.219 388.235 256.468 378.243C275.863 368.104 290.41 352.456 300.108 331.297C306.277 317.946 310.513 302.172 312.816 283.974H286.55V238.968H314.725Z" fill="#2639ED"/>
<path d="M29.2318 475H21.2318C21.2318 479.418 24.8135 483 29.2318 483V475ZM307.381 447.89L303.544 440.871C303.539 440.873 303.535 440.876 303.53 440.878L307.381 447.89ZM383.42 370.088L376.34 366.363C376.336 366.371 376.332 366.379 376.327 366.387L383.42 370.088ZM408.239 360.657V368.657C412.657 368.657 416.239 365.075 416.239 360.657H408.239ZM484.922 283.974V291.974C489.34 291.974 492.922 288.392 492.922 283.974H484.922ZM484.922 238.968H492.922C492.922 234.549 489.34 230.968 484.922 230.968V238.968ZM408.239 162.285H416.239C416.239 157.867 412.657 154.285 408.239 154.285V162.285ZM383.42 128.085L376.334 131.798C376.338 131.806 376.343 131.814 376.347 131.822L383.42 128.085ZM307.822 50.7235L303.958 57.7286C303.966 57.733 303.974 57.7374 303.982 57.7418L307.822 50.7235ZM29.2318 23.6138V15.6138C24.8135 15.6138 21.2318 19.1956 21.2318 23.6138H29.2318ZM363.233 238.968V246.968C367.651 246.968 371.233 243.386 371.233 238.968H363.233ZM363.233 162.285V154.285C358.814 154.285 355.233 157.867 355.233 162.285H363.233ZM408.239 238.968H400.239C400.239 243.386 403.821 246.968 408.239 246.968V238.968ZM408.239 283.974V275.974C403.821 275.974 400.239 279.556 400.239 283.974H408.239ZM363.233 360.657H355.233C355.233 365.075 358.814 368.657 363.233 368.657V360.657ZM363.233 283.974H371.233C371.233 279.556 367.651 275.974 363.233 275.974V283.974ZM300.108 167.096L292.835 170.43C292.841 170.444 292.848 170.457 292.854 170.471L300.108 167.096ZM256.688 120.371L260.374 113.271L260.374 113.271L256.688 120.371ZM124.666 105.384V97.3835C120.248 97.3835 116.666 100.965 116.666 105.384H124.666ZM124.666 393.23H116.666C116.666 397.649 120.248 401.23 124.666 401.23V393.23ZM256.468 378.243L260.153 385.343C260.16 385.34 260.167 385.336 260.174 385.333L256.468 378.243ZM300.108 331.297L292.845 327.941C292.842 327.949 292.838 327.956 292.835 327.964L300.108 331.297ZM286.55 283.974H278.55C278.55 288.392 282.131 291.974 286.55 291.974V283.974ZM286.55 238.968V230.968C282.131 230.968 278.55 234.549 278.55 238.968H286.55ZM189.245 467H29.2318V483H189.245V467ZM303.53 440.878C272.031 458.175 234.037 467 189.245 467V483C236.14 483 276.904 473.752 311.231 454.903L303.53 440.878ZM376.327 366.387C359.419 398.796 335.197 423.567 303.544 440.871L311.218 454.91C345.686 436.068 372.157 408.97 390.513 373.789L376.327 366.387ZM380.808 357.305C379.389 360.379 377.9 363.399 376.34 366.363L390.5 373.813C392.19 370.6 393.802 367.333 395.336 364.009L380.808 357.305ZM408.239 352.657H388.072V368.657H408.239V352.657ZM400.239 284.642V360.657H416.239V284.642H400.239ZM400.354 283.136C400.331 283.353 400.308 283.57 400.285 283.787L416.193 285.497C416.218 285.269 416.242 285.041 416.266 284.812L400.354 283.136ZM484.922 275.974H408.31V291.974H484.922V275.974ZM476.922 238.968V283.974H492.922V238.968H476.922ZM409.954 246.968H484.922V230.968H409.954V246.968ZM400.285 214.065C401.161 222.184 401.72 230.558 401.957 239.188L417.951 238.748C417.702 229.714 417.117 220.913 416.193 212.348L400.285 214.065ZM400.239 162.285V213.206H416.239V162.285H400.239ZM397.714 170.285H408.239V154.285H397.714V170.285ZM376.347 131.822C381.786 142.116 386.371 153.079 390.095 164.722L405.334 159.848C401.336 147.347 396.391 135.51 390.493 124.348L376.347 131.822ZM303.982 57.7418C335.339 74.8969 359.421 99.5224 376.334 131.798L390.506 124.372C372.155 89.3512 345.837 62.4023 311.661 43.7051L303.982 57.7418ZM190.567 31.6138C234.905 31.6138 272.602 40.4337 303.958 57.7286L311.686 43.7184C277.508 24.867 237.035 15.6138 190.567 15.6138V31.6138ZM29.2318 31.6138H190.567V15.6138H29.2318V31.6138ZM37.2318 475V23.6138H21.2318V475H37.2318ZM371.233 238.968V162.285H355.233V238.968H371.233ZM363.233 170.285H397.714V154.285H363.233V170.285ZM390.095 164.722C394.975 179.981 398.381 196.421 400.285 214.065L416.193 212.348C414.184 193.735 410.573 176.228 405.334 159.848L390.095 164.722ZM400.239 213.206V238.968H416.239V213.206H400.239ZM408.239 246.968H409.954V230.968H408.239V246.968ZM401.957 239.188C402.045 242.379 402.089 245.605 402.089 248.866H418.089C418.089 245.461 418.043 242.088 417.951 238.748L401.957 239.188ZM402.089 248.866C402.089 260.75 401.509 272.172 400.354 283.136L416.266 284.812C417.483 273.253 418.089 261.27 418.089 248.866H402.089ZM408.31 275.974H408.239V291.974H408.31V275.974ZM400.239 283.974V284.642H416.239V283.974H400.239ZM400.285 283.787C397.344 311.129 390.821 335.607 380.808 357.305L395.336 364.009C406.169 340.535 413.091 314.337 416.193 285.498L400.285 283.787ZM388.072 352.657H363.233V368.657H388.072V352.657ZM371.233 360.657V283.974H355.233V360.657H371.233ZM363.233 275.974H312.816V291.974H363.233V275.974ZM320.753 284.979C322.173 273.758 322.875 261.716 322.875 248.866H306.875C306.875 261.142 306.204 272.505 304.879 282.969L320.753 284.979ZM322.875 248.866C322.875 245.425 322.823 242.044 322.721 238.721L306.728 239.215C306.826 242.367 306.875 245.584 306.875 248.866H322.875ZM314.725 246.968H363.233V230.968H314.725V246.968ZM322.721 238.721C321.807 209.133 316.808 184.025 307.361 163.722L292.854 170.471C301.113 188.22 305.858 211.027 306.728 239.215L322.721 238.721ZM307.38 163.763C296.998 141.111 281.324 124.145 260.374 113.271L253.002 127.471C270.55 136.58 283.822 150.765 292.835 170.43L307.38 163.763ZM260.374 113.271C239.696 102.537 214.619 97.3835 185.498 97.3835V113.384C212.8 113.384 235.183 118.222 253.002 127.471L260.374 113.271ZM185.498 97.3835H124.666V113.384H185.498V97.3835ZM116.666 105.384V393.23H132.666V105.384H116.666ZM124.666 401.23H185.277V385.23H124.666V401.23ZM185.277 401.23C214.399 401.23 239.476 396.077 260.153 385.343L252.782 371.143C234.963 380.392 212.579 385.23 185.277 385.23V401.23ZM260.174 385.333C281.245 374.318 296.993 357.292 307.38 334.63L292.835 327.964C283.826 347.619 270.481 361.891 252.762 371.153L260.174 385.333ZM307.37 334.653C313.956 320.4 318.371 303.798 320.753 284.979L304.879 282.969C302.655 300.546 298.598 315.492 292.845 327.941L307.37 334.653ZM312.816 275.974H286.55V291.974H312.816V275.974ZM294.55 283.974V238.968H278.55V283.974H294.55ZM286.55 246.968H314.725V230.968H286.55V246.968Z" fill="white" mask="url(#path-2-outside-1_1_2)"/>
</g>
<defs>
<clipPath id="clip0_1_2">
<rect width="500" height="500" fill="white"/>
</clipPath>
</defs>
</svg>
