<svg width="500" height="500" viewBox="0 0 500 500" fill="none" xmlns="http://www.w3.org/2000/svg">
<path d="M314.911 259.021L315.774 258.037C316.101 257.665 316.651 257.588 317.068 257.856C317.484 258.124 317.641 258.657 317.438 259.108L316.957 260.173L316.948 260.193C305.618 283.925 292.262 306.761 273.486 322.114C270.338 324.69 261.829 330.783 253.613 336.281C249.501 339.033 245.444 341.649 242.152 343.61C242.111 343.634 242.07 343.658 242.03 343.682C243.686 343.196 245.466 342.618 247.262 341.998C252.451 340.204 257.701 338.078 260.331 336.848C260.981 336.544 261.951 336.027 263.014 335.462C263.458 335.226 263.917 334.981 264.376 334.74C265.142 334.337 265.9 333.947 266.548 333.641C267.161 333.351 267.779 333.084 268.22 332.992C268.696 332.894 269.174 333.151 269.353 333.603C269.532 334.055 269.36 334.57 268.946 334.824C268.004 335.401 266.47 336.617 264.501 338.234C263.932 338.701 263.33 339.199 262.702 339.718C261.185 340.972 259.513 342.355 257.774 343.746C255.519 345.55 253.116 347.4 250.746 349.037L263.095 345.337C263.515 345.211 263.969 345.374 264.213 345.739C264.457 346.104 264.435 346.586 264.157 346.926C261.387 350.33 256.581 354.571 251.506 358.418C246.425 362.27 240.986 365.794 236.91 367.735C236.338 368.008 235.626 368.27 234.948 368.52C234.72 368.604 234.496 368.687 234.282 368.768C233.843 368.935 233.439 369.098 233.083 369.262C233.654 369.854 234.317 370.454 235.035 371.105C235.133 371.194 235.233 371.284 235.334 371.376C236.498 372.432 237.762 373.609 238.768 374.976L238.769 374.977C240.586 377.454 242.513 380.504 243.26 384.303C243.324 384.627 243.224 384.961 242.993 385.196C242.762 385.432 242.43 385.538 242.105 385.481C241.022 385.29 239.955 385.085 238.898 384.881C233.964 383.932 229.231 383.021 224.028 383.78C220.384 384.311 218.708 385.34 217.883 386.844C216.996 388.461 216.915 390.899 217.265 394.75L216.335 394.834L217.265 394.75C218.345 406.659 220.629 417.659 224.485 428.08C229.944 442.818 236.676 455.647 245.077 468.234L244.331 468.732L245.077 468.234C245.332 468.616 245.603 469.014 245.885 469.428C248.189 472.812 251.208 477.246 251.822 482.357C251.871 482.763 251.667 483.159 251.307 483.355C250.947 483.55 250.504 483.506 250.189 483.244C249.262 482.471 248.102 481.021 246.884 479.317C245.647 477.585 244.287 475.5 242.958 473.38C241.049 470.336 239.181 467.186 237.818 464.887C237.286 463.991 236.832 463.224 236.481 462.643L237.288 462.156L236.481 462.643C222.438 439.368 212.173 414.534 211.267 385.319C210.052 346.174 226.793 313.225 241.418 284.438C242.03 283.235 242.638 282.039 243.24 280.85C246.556 274.307 250.029 268.123 253.493 261.956C254.052 260.962 254.61 259.968 255.167 258.973C259.185 251.8 263.161 244.565 266.865 236.682C274.099 221.286 280.718 205.24 285.327 187.503C292.375 160.382 294.154 132.274 290.145 105.431C293.318 133.949 289.952 161.626 282.3 188.969C273.985 218.688 262.511 239.709 249.128 264.228C247.873 266.528 246.6 268.859 245.312 271.23L245.312 271.231C234.984 290.241 225.808 307.44 218.118 328.872C208.533 355.592 206.208 380.042 210.122 403.656C214.038 427.28 224.208 450.127 239.702 473.62L239.702 473.62C239.987 474.052 240.311 474.55 240.662 475.09C242.335 477.664 244.626 481.187 246.196 482.971C246.455 483.266 246.518 483.686 246.356 484.044C246.195 484.402 245.838 484.632 245.445 484.632H237.768C237.379 484.632 237.025 484.406 236.861 484.054C236.29 482.827 235.268 481.4 234.113 479.913C233.741 479.434 233.352 478.946 232.966 478.46C232.19 477.484 231.423 476.52 230.814 475.663C215.256 453.761 204.626 426.161 200.817 399.673L200.817 399.672C200.365 396.53 200.094 393.5 199.831 390.57C199.703 389.144 199.577 387.742 199.433 386.362C198.993 382.117 198.381 378.002 197.037 373.763L197.926 373.481L197.036 373.763C194.41 365.476 191.78 359.725 188.195 352.504L188.195 352.503C181.725 339.462 172.398 328.671 161.371 319.743C161.028 319.465 160.907 318.995 161.075 318.587C161.242 318.178 161.657 317.928 162.096 317.97C163.54 318.11 165.325 318.714 167.199 319.534C169.094 320.364 171.162 321.451 173.194 322.619C177.258 324.956 181.244 327.655 183.535 329.366L182.942 330.161L183.535 329.366C184.847 330.346 185.889 331.343 186.824 332.267C186.953 332.394 187.079 332.52 187.204 332.643C186.998 331.806 186.775 330.954 186.546 330.081L186.501 329.909C185.974 327.901 185.428 325.798 185.055 323.634L186.04 323.464L185.055 323.634C181.213 301.306 183.778 278.159 190.665 256.993L191.612 257.301L190.665 256.993C191.494 254.447 193.115 249.982 194.845 245.719C195.71 243.586 196.606 241.494 197.446 239.712C198.279 237.947 199.084 236.428 199.772 235.48C200.025 235.131 200.472 234.984 200.883 235.114C201.294 235.244 201.575 235.622 201.581 236.052L201.694 243.759C208.353 227.901 213.515 216.239 223.321 201.518L223.321 201.517C224.562 199.656 225.762 197.929 226.951 196.218C228.862 193.469 230.745 190.76 232.72 187.601C232.931 187.264 233.321 187.084 233.715 187.142C234.108 187.2 234.429 187.486 234.533 187.87C235.83 192.66 235.846 198.061 235.444 203.065C235.699 202.217 235.902 201.526 236.023 201.075L236.023 201.075C236.77 198.293 237.28 195.385 237.79 192.452L237.821 192.271C238.317 189.413 238.818 186.529 239.54 183.804C240.6 179.805 242.81 175.52 245.269 171.416C246.924 168.656 248.725 165.926 250.393 163.398C251.195 162.181 251.967 161.012 252.676 159.908C252.866 159.577 253.011 159.296 253.146 159.032C253.184 158.959 253.221 158.887 253.257 158.816C253.422 158.5 253.605 158.161 253.852 157.86C254.409 157.178 255.149 156.851 256.269 156.589C256.762 156.474 257.263 156.745 257.436 157.221C258.102 159.05 258.482 161.191 258.728 163.385C259.145 160.852 259.356 157.988 259.382 155.053C259.429 149.713 258.862 144.289 257.898 140.471C257.523 138.989 256.99 137.646 256.447 136.334C256.388 136.192 256.329 136.049 256.27 135.907C255.791 134.757 255.309 133.6 254.984 132.447C254.868 132.035 255.027 131.595 255.379 131.352C255.732 131.109 256.2 131.117 256.543 131.373C259.567 133.621 260.898 135.031 263.319 137.654C263.319 137.654 263.319 137.654 263.319 137.654L262.584 138.332C264.058 139.926 265.112 141.697 266.175 143.484C266.503 144.036 266.832 144.589 267.175 145.14L314.911 259.021ZM314.911 259.021C313.776 259.937 312.832 260.77 311.937 261.56C310.046 263.23 308.369 264.71 305.55 266.381C303.727 267.46 300.927 269 298.225 270.2C298.656 269.805 299.06 269.441 299.447 269.093C302.034 266.764 303.864 265.117 308.026 259.002L308.026 259.002C311.372 254.086 314.764 247.718 317.676 241.768M314.911 259.021L317.676 241.768M317.676 241.768C317.676 241.768 317.676 241.768 317.676 241.768L316.812 241.346L317.676 241.768ZM232.83 189.298C231.108 191.989 229.433 194.399 227.749 196.823C226.562 198.531 225.37 200.247 224.153 202.072C213.973 217.355 208.829 229.311 201.73 246.258L232.83 189.298ZM232.83 189.298C232.759 188.993 232.684 188.691 232.603 188.392L233.568 188.131L234.416 188.661C234.242 188.939 234.069 189.213 233.896 189.485C234.845 193.879 234.806 198.744 234.419 203.329C234.287 204.882 233.942 207.026 233.587 209.206L232.83 189.298ZM163.662 320.336C174.059 329.069 182.876 339.531 189.09 352.059C192.687 359.303 195.342 365.105 197.99 373.461C199.817 379.222 200.312 384.736 200.83 390.517C201.091 393.431 201.359 396.414 201.806 399.53C205.595 425.87 216.168 453.318 231.63 475.084C232.223 475.92 232.959 476.845 233.724 477.806C235.27 479.749 236.934 481.839 237.768 483.632L163.662 320.336ZM163.662 320.336C162.998 320.137 162.407 320.01 161.904 319.961L162 318.966L162.629 318.188C163.139 318.601 163.646 319.018 164.149 319.439C169.803 321.206 178.973 327.206 182.937 330.167C184.373 331.24 185.479 332.339 186.518 333.372C186.89 333.741 187.253 334.101 187.619 334.449L163.662 320.336ZM299.488 244.339C307.773 234.799 312.577 226.865 319.735 214.514C322.007 210.597 326.538 201.487 330.63 192.348C332.678 187.773 334.624 183.175 336.126 179.201C337.617 175.257 338.707 171.838 338.992 169.661C339.054 169.181 338.764 168.724 338.301 168.578C337.839 168.432 337.339 168.638 337.114 169.068L335.846 171.49C336.038 170.28 336.255 169.032 336.478 167.762L336.549 167.36C337.097 164.24 337.665 161.009 337.931 158.013M337.931 158.013C337.931 158.013 337.931 158.013 337.931 158.013L336.935 157.924L337.931 158.013ZM258.291 108.892C264.659 118.184 267.246 131.53 267.205 143.259L324.553 122.889C324.716 121.723 324.923 120.515 325.134 119.286C325.531 116.967 325.94 114.578 326.091 112.272L327.089 112.338C327.089 112.338 327.089 112.337 327.089 112.337C328.002 98.4447 326.246 83.3456 321.707 70.4714C321.567 70.0746 321.194 69.8078 320.773 69.804C320.352 69.8002 319.974 70.0601 319.827 70.4543L317.149 77.6292C314.309 67.8026 309.538 61.1259 304.517 54.1103L304.516 54.1101C300.588 48.6238 292.344 38.4794 287.312 33.9195C287.038 33.6712 286.909 33.5565 286.783 33.463C286.729 33.4223 286.663 33.3776 286.627 33.3524C286.58 33.3191 286.512 33.2705 286.4 33.1862C286.065 32.9344 285.61 32.9174 285.258 33.1436C284.905 33.3698 284.731 33.7914 284.822 34.2001L287.492 46.3189C285.824 43.8938 283.803 41.4699 281.7 39.2101C277.665 34.8731 273.222 31.03 270.106 28.7964C261.761 22.8139 250.594 17.3123 237.747 16.0051C237.38 15.9678 237.023 16.1351 236.817 16.4405C236.61 16.7458 236.589 17.1398 236.76 17.4658C237.403 18.6859 238.043 19.464 238.777 20.3567C239.035 20.6716 239.306 21.0007 239.593 21.3685L239.593 21.3687C253.203 38.8269 263.665 61.8096 266.65 84.3119L258.306 82.2568C257.912 82.1598 257.499 82.3101 257.26 82.6372C257.02 82.9644 257.002 83.4037 257.214 83.7495C262.952 93.1318 266.167 103.615 267.592 115.113C264.941 110.525 261.301 106.505 256.863 103.419C256.492 103.161 255.993 103.184 255.648 103.475C255.302 103.766 255.195 104.253 255.386 104.663C255.777 105.499 256.272 106.205 256.774 106.868C256.928 107.071 257.08 107.267 257.23 107.462C257.586 107.921 257.936 108.372 258.291 108.891L258.291 108.892ZM200.608 237.906C200.894 237.399 201.157 236.977 201.391 236.654L200.581 236.067L199.581 236.082L199.604 237.653L200.608 237.906ZM244.14 483.632C244.332 483.87 244.517 484.091 244.694 484.293L245.445 483.632V482.632H244.623C243.093 480.666 241.207 477.764 239.802 475.603C239.457 475.072 239.142 474.587 238.867 474.17C207.775 427.026 197.905 382.259 217.177 328.534C224.895 307.022 234.105 289.764 244.434 270.753C245.721 268.383 246.992 266.054 248.245 263.757C261.632 239.231 273.054 218.304 281.337 188.7C289.652 158.986 292.879 128.915 288.132 97.8127C287.518 93.7816 285.785 85.9431 284.348 79.6158C286.154 85.5494 287.644 91.589 288.825 97.7071L288.134 97.8124L288.825 97.7072L244.14 483.632Z" fill="#2639ED" stroke="white" stroke-width="2" stroke-linejoin="round"/>
</svg>
