<?xml version="1.0" encoding="UTF-8"?>
<!DOCTYPE svg PUBLIC "-//W3C//DTD SVG 1.1//EN" "http://www.w3.org/Graphics/SVG/1.1/DTD/svg11.dtd">
<!-- Creator: CorelDRAW 2021 (64 Bit) -->
<svg xmlns="http://www.w3.org/2000/svg" xml:space="preserve" width="5.9266mm" height="15.0706mm" version="1.1" style="shape-rendering:geometricPrecision; text-rendering:geometricPrecision; image-rendering:optimizeQuality; fill-rule:evenodd; clip-rule:evenodd"
viewBox="0 0 592.66 1507.06"
 xmlns:xlink="http://www.w3.org/1999/xlink"
 xmlns:xodm="http://www.corel.com/coreldraw/odm/2003">
 <defs>
  <style type="text/css">
   <![CDATA[
    .fil0 {fill:#2639ED}
   ]]>
  </style>
 </defs>
 <g id="Camada_x0020_1">
  <metadata id="CorelCorpID_0Corel-Layer"/>
  <path class="fil0" d="M500.94 783.55c-10.96,8.81 -16.84,15.83 -30.39,23.86 -9.05,5.36 -26.06,14.53 -37.77,17.48 19.28,-19.93 22.04,-17.06 41.4,-45.5 10.52,-15.46 21.24,-35.57 30.49,-54.47 11.82,-24.14 44.43,-97.26 47.24,-121.53 -3.66,11.47 -18.81,32.74 -25.68,43.68 -20.17,32.17 -66.87,91.31 -100.13,108.32 40.42,-41.85 57.01,-68.73 85.23,-117.43 14.3,-24.65 57.49,-115.53 60.9,-141.6l-12.09 23.09c1.1,-17.58 6.96,-40.47 8.7,-60.04 4.01,-45.02 3.35,-154.29 -11.38,-190.28 -8.23,30.44 -16.34,62.35 -29.02,88.58 0.59,-12.92 4.91,-28.82 5.88,-43.63 2.88,-43.85 -2.67,-91.48 -16.96,-132.01l-12.05 32.29c-8.37,-36.15 -24.66,-58.99 -42.26,-83.58 -12.46,-17.4 -38.55,-49.48 -54.32,-63.77 -1.82,-1.65 -1.14,-0.99 -2.68,-2.15l13.44 61c-9.3,-26.57 -45.79,-60.98 -65.25,-74.93 -26.25,-18.82 -61.28,-36.05 -101.48,-40.14 2.59,4.92 4.97,7.15 8.71,11.95 44.56,57.16 78.62,132.8 87.36,206.53l-31.06 -7.65c20.94,34.24 31.43,72.93 34.97,115.54 -1.91,-2.05 -3.46,-5.33 -4.83,-7.74 -8.36,-16.17 -20.56,-30.32 -35.79,-40.91 2.2,4.71 5.66,8.14 8.99,13.01 22.73,33.17 30.53,81.8 28.67,121.79 -6.14,-8.82 -10.21,-18.25 -17.63,-26.27 -7.66,-8.3 -11.74,-12.62 -21.13,-19.6 2.2,7.8 6.79,15.71 9.3,25.63 6.3,24.97 7.28,70.19 -2.19,92.34 -0.8,-12.69 -1.55,-26.69 -5.36,-37.15 -6.64,1.55 -6.09,3.3 -9.44,9.12 -14.08,21.91 -34.95,50.66 -41.46,75.23 -4.61,17.4 -6.36,36.96 -11.2,54.99 -2.38,8.88 -14.63,46.66 -13.95,50.39 -0.29,-8.89 4.75,-32.02 5.77,-44.04 1.36,-16.11 1.37,-33.31 -2.71,-48.38 -10.21,16.33 -19.82,29.15 -29.97,44.38 -33.86,50.83 -50.22,90.1 -74.46,148.01l-0.58 -39.79c-8,11.03 -23.32,51.56 -28.54,67.6 -21.79,66.97 -29.88,140.13 -17.75,210.62 2.32,13.47 6.82,26.28 8.94,38.44 -6.05,-4.91 -10.83,-11.13 -18.82,-17.1 -14.39,-10.75 -50.33,-34.08 -66.65,-35.66 35.4,28.66 65.41,63.36 86.24,105.35 11.45,23.06 19.9,41.53 28.33,68.13 8.75,27.59 7.9,53.39 12.15,82.99 12.06,83.85 45.72,171.23 94.94,240.52 5.7,8.03 15.57,18.68 19.54,27.21l24.44 0c-6.24,-7.09 -15.84,-22.38 -20.94,-30.12 -98.98,-150.08 -130.4,-292.59 -69.05,-463.62 24.57,-68.48 53.89,-123.42 86.77,-183.94 47.85,-88.11 88.64,-158.14 117.48,-261.21 26.47,-94.59 36.74,-190.32 21.63,-289.33 -3.53,-23.17 -18.67,-85.85 -18.91,-88.39 43.03,117.05 45.67,249.23 13.06,374.71 -14.74,56.73 -35.9,108.01 -58.97,157.11 -23.69,50.41 -50.81,92.47 -75.25,140.69 -47.88,94.48 -105.44,202.16 -101.44,331.03 2.86,92.27 35.27,170.79 79.81,244.61 8.04,13.32 32.55,56.11 42.95,64.78 -2.08,-17.32 -13.32,-32.12 -20.96,-43.57 -26.87,-40.26 -48.42,-81.32 -65.89,-128.49 -12.39,-33.48 -19.71,-68.78 -23.17,-106.92 -2.21,-24.3 0.39,-34.88 24.24,-38.36 20.77,-3.03 39.4,2.05 58.56,5.43 -2.24,-11.4 -8.04,-20.65 -13.74,-28.42 -5.98,-8.13 -15.21,-14.21 -20.5,-20.9 3.92,-2.89 11.23,-4.74 15.78,-6.91 25.4,-12.1 68.48,-44.3 85.64,-65.38l-66.48 19.92c27.23,-10.42 69.63,-51.25 82.53,-59.15 -3.9,0.81 -18.37,9.21 -24.41,12.04 -17,7.95 -67.28,27.23 -82.5,26.61 13.09,-1.56 101.22,-62.67 121.01,-78.86 59.2,-48.41 101.47,-120.56 137.5,-196.03l1.53 -3.39 -2.93 3.34z"/>
 </g>
</svg>
