<?xml version="1.0" encoding="UTF-8"?>
<!DOCTYPE svg PUBLIC "-//W3C//DTD SVG 1.1//EN" "http://www.w3.org/Graphics/SVG/1.1/DTD/svg11.dtd">
<!-- Creator: CorelDRAW 2021 (64 Bit) -->
<svg xmlns="http://www.w3.org/2000/svg" xml:space="preserve" width="37.6766mm" height="15.0706mm" version="1.1" style="shape-rendering:geometricPrecision; text-rendering:geometricPrecision; image-rendering:optimizeQuality; fill-rule:evenodd; clip-rule:evenodd"
viewBox="0 0 3767.66 1507.06"
 xmlns:xlink="http://www.w3.org/1999/xlink"
 xmlns:xodm="http://www.corel.com/coreldraw/odm/2003">
 <defs>
  <style type="text/css">
   <![CDATA[
    .fil0 {fill:#2639ED}
   ]]>
  </style>
 </defs>
 <g id="Camada_x0020_1">
  <metadata id="CorelCorpID_0Corel-Layer"/>
  <path class="fil0" d="M933 772.74c-10.96,8.81 -16.84,15.83 -30.39,23.86 -9.05,5.36 -26.06,14.53 -37.77,17.48 19.28,-19.93 22.04,-17.06 41.4,-45.5 10.52,-15.46 21.24,-35.57 30.49,-54.47 11.82,-24.14 44.43,-97.26 47.24,-121.53 -3.66,11.47 -18.81,32.74 -25.68,43.68 -20.17,32.17 -66.87,91.31 -100.13,108.32 40.42,-41.85 57.01,-68.73 85.23,-117.43 14.3,-24.65 57.49,-115.53 60.9,-141.6l-12.09 23.09c1.1,-17.58 6.96,-40.47 8.7,-60.04 4.01,-45.02 3.35,-154.29 -11.38,-190.28 -8.23,30.44 -16.34,62.35 -29.02,88.58 0.59,-12.92 4.91,-28.82 5.88,-43.63 2.88,-43.85 -2.67,-91.48 -16.96,-132.01l-12.05 32.29c-8.37,-36.15 -24.66,-58.99 -42.26,-83.58 -12.46,-17.4 -38.55,-49.48 -54.32,-63.77 -1.82,-1.65 -1.14,-0.99 -2.68,-2.15l13.44 61c-9.3,-26.57 -45.79,-60.98 -65.25,-74.93 -26.25,-18.82 -61.28,-36.05 -101.48,-40.14 2.59,4.92 4.97,7.15 8.71,11.95 44.56,57.16 78.62,132.8 87.36,206.53l-31.06 -7.65c20.94,34.24 31.43,72.93 34.97,115.54 -0.28,-0.3 -0.6,-0.73 -0.77,-0.96 -0.17,-0.24 -0.54,-0.67 -0.75,-0.96l-3.31 -5.82c-8.36,-16.17 -20.56,-30.32 -35.79,-40.91 2.2,4.71 5.66,8.14 8.99,13.01 22.73,33.17 30.53,81.8 28.67,121.79l-2.63 -3.78c-4.92,-8.24 -8.5,-15.46 -15,-22.49 -7.66,-8.3 -11.74,-12.62 -21.13,-19.6 2.2,7.8 6.79,15.71 9.3,25.63 6.3,24.97 7.28,70.19 -2.19,92.34 -0.8,-12.69 -1.55,-26.69 -5.36,-37.15 -6.64,1.55 -6.09,3.3 -9.44,9.12l-19.7 30.67c-7.53,11.82 -17.61,28.9 -21.76,44.56 -4.61,17.4 -6.36,36.96 -11.2,54.99 -2.38,8.88 -14.63,46.66 -13.95,50.39 -0.29,-8.89 4.75,-32.02 5.77,-44.04 1.36,-16.11 1.37,-33.31 -2.71,-48.38 -10.21,16.33 -19.82,29.15 -29.97,44.38 -33.86,50.83 -50.22,90.1 -74.46,148.01l-0.58 -39.79c-8,11.03 -23.32,51.56 -28.54,67.6 -21.79,66.97 -29.88,140.13 -17.75,210.62 2.32,13.47 6.82,26.28 8.94,38.44 -6.05,-4.91 -10.83,-11.13 -18.82,-17.1 -14.39,-10.75 -50.33,-34.08 -66.65,-35.66 35.4,28.66 65.41,63.36 86.24,105.35 11.45,23.06 19.9,41.53 28.33,68.13 8.75,27.59 7.9,53.39 12.15,82.99 7.8,54.25 23,102.82 43.12,148.36 14.86,33.65 31.42,63.44 51.82,92.16 5.83,8.21 16.02,19.17 19.8,27.79 -119.74,-5.03 -260.92,-53.18 -353.48,-126.13 -7.92,-6.25 -15.38,-11.44 -22.61,-17.69l-32.62 -27.93c-4.68,-3.98 -5.43,-5.44 -9.88,-10.21 -6.29,-6.73 -13.55,-12.24 -19.6,-19.28 -53.46,-62.19 -92.62,-115.77 -123.58,-196.14 -82.29,-213.59 -47.88,-444.71 82.31,-628.65 89.22,-126.07 227.11,-219.11 384.75,-253.12 72.23,-15.58 81.32,-9.17 144,-14.47 -1.11,-11.78 -13.23,-72.86 -19.13,-87.28 -1.67,-4.07 0.65,-2 -3.17,-4.14 -97.05,0 -196.33,25.65 -273.81,60.3 -38.05,17.02 -76.24,37.92 -107.44,59.59 -37.09,25.77 -71.48,52.65 -102.28,84.91 -3.5,3.66 -6.5,5.85 -10.49,9.66 -4.01,3.82 -6.81,7.19 -10.28,11.36 -3.51,4.22 -5.98,6.14 -9.76,10.33 -6.45,7.16 -12.71,15.02 -19.04,22.8 -31.69,38.97 -56.91,77.64 -81.88,125.43 -37.63,72.01 -66.21,166.44 -73.54,259.19 -11.47,145.2 19.68,285.06 88.51,405.73 94.23,165.16 257.77,303.84 485.35,345.48 225.13,41.18 461.96,-32.25 618.74,-189.39 10.63,-10.66 22.07,-21.3 31.07,-32.34l28.52 -33.34c12.73,-16.34 24.62,-33.03 35.74,-50.02 -0.62,5.59 -1.16,11.35 -1.69,17.21 -1.9,34.9 11.43,66 33.64,85.67 11.42,10.15 25.38,17.77 41.25,19.67 15.23,2.54 31.73,-0.63 48.23,-7.61 33.15,-13.47 61.65,-43.85 87.92,-97.35 17.62,85.32 68.98,147.73 147.52,82.75 10.79,-8.88 21.58,-21.57 30.46,-36.17 19.04,-29.83 33.64,-68.54 37.45,-95.19 1.26,-2.54 1.26,-3.18 1.26,-6.35 18.41,7.62 26.66,10.15 43.16,12.69 6.98,0.64 13.96,-4.44 14.6,-11.42 0.63,-7.62 -4.45,-13.96 -12.06,-14.6 -14.6,-2.54 -28.56,-7.61 -39.98,-15.86 1.9,-18.41 2.53,-36.18 0.63,-53.31 -1.9,-10.79 -4.44,-20.31 -8.88,-27.92 -6.98,-9.52 -15.87,-14.6 -27.93,-13.33 -7.61,0.63 -15.86,4.44 -25.38,12.06 -0.64,0.63 -1.27,1.27 -1.91,1.9 -6.34,7.62 -10.78,14.6 -13.32,22.21 -5.08,16.5 -0.64,31.73 9.52,45.69 8.25,11.43 21.57,21.58 36.17,30.47 -3.81,23.48 -11.42,60.29 -36.17,99 -7.62,12.06 -15.87,22.21 -24.75,29.82 -7.62,6.35 -15.23,9.52 -21.58,9.52 -19.04,0 -30.46,-133.27 -24.75,-157.38l1.27 -6.35c15.86,-77.42 -68.54,-90.75 -83.14,-50.77 -7.35,27.81 -10.11,59.78 -8.57,91.41 -0.69,1.13 -1.23,2.4 -1.58,3.79 -30.46,78.69 -67.27,115.5 -83.77,111.05 -33.63,-10.78 -33.63,-53.94 -20.31,-97.09 67.91,-7.62 105.99,-83.14 56.49,-117.41 -19.04,-13.96 -51.41,-20.94 -79.97,-3.81 -1.68,1.03 -3.31,2.11 -4.92,3.22 76.32,-196.85 59.7,-416.74 -48.19,-606.89 -9.91,-17.47 -21.64,-34.83 -32.64,-50.89 -11.59,-16.92 -24.11,-30.92 -36.49,-46.98l-22.77 -26.1c-18.26,-21.64 -60.06,-58.02 -82.57,-75.94 -6.93,-5.52 -15.46,-12.19 -23.84,-17.93 -50.27,-34.47 -101.75,-65.79 -162.75,-86.59 3.09,7.72 9.37,17.04 13.48,25.64 13.2,27.67 21.4,54.63 27.15,85.26 1.51,8.07 1.45,6.13 8.71,9.85l35.88 20.32c16.21,10.25 29.42,19.29 44.69,30.19 115.19,82.24 207.62,216.85 244.03,355.06 23.15,87.92 31.22,176.3 18.24,270.49 -17.02,123.59 -64.55,222.84 -136.24,313 -12.9,16.23 -39.32,45.42 -54.07,58.21 -6.32,5.47 -13.17,12.14 -20.06,17.44 -3.6,2.75 -6.58,5.66 -10.21,8.52 -55.02,43.39 -109.8,76.92 -177.31,103.46 -77.73,30.56 -162.85,44.14 -254.57,44.14 -6.07,-5.99 -16.98,-23.39 -22.54,-31.82 -55.92,-84.79 -95.2,-171.86 -100.28,-278.62 -3,-63.08 12.03,-131.47 31.23,-185 24.57,-68.48 53.89,-123.42 86.77,-183.94 47.85,-88.11 88.64,-158.14 117.48,-261.21 26.47,-94.59 36.74,-190.32 21.63,-289.33 -3.53,-23.17 -18.67,-85.85 -18.91,-88.39 43.03,117.05 45.67,249.23 13.06,374.71 -14.74,56.73 -35.9,108.01 -58.97,157.11 -23.69,50.41 -50.81,92.47 -75.25,140.69 -47.88,94.48 -105.44,202.16 -101.44,331.03 2.86,92.27 35.27,170.79 79.81,244.61 8.04,13.32 32.55,56.11 42.95,64.78 -2.08,-17.32 -13.32,-32.12 -20.96,-43.57 -26.87,-40.26 -48.42,-81.32 -65.89,-128.49 -12.39,-33.48 -19.71,-68.78 -23.17,-106.92 -2.21,-24.3 0.39,-34.88 24.24,-38.36 20.77,-3.03 39.4,2.05 58.56,5.43 -2.24,-11.4 -8.04,-20.65 -13.74,-28.42 -5.98,-8.13 -15.21,-14.21 -20.5,-20.9 3.92,-2.89 11.23,-4.74 15.78,-6.91 25.4,-12.1 68.48,-44.3 85.64,-65.38l-66.48 19.92c27.23,-10.42 69.63,-51.25 82.53,-59.15 -3.9,0.81 -18.37,9.21 -24.41,12.04 -17,7.95 -67.28,27.23 -82.5,26.61 10.09,-1.2 71.22,-42.87 81.93,-50.24 12.68,-8.72 27.15,-18.86 39.08,-28.62 59.2,-48.41 101.47,-120.56 137.5,-196.03l1.53 -3.39 -2.93 3.34zm2656.74 480.22c-23.48,0 -38.08,-26.66 -38.08,-64.74 0,-10.15 1.27,-21.57 3.81,-33.63 10.79,-46.33 33.63,-67.27 51.4,-67.27 15.23,0 28.56,12.69 33,29.19 -3.17,0.64 -8.25,1.27 -15.23,1.27 -13.96,0 -25.38,11.42 -25.38,25.39 0,12.69 9.52,22.84 29.19,31.73 3.81,1.9 8.88,3.17 14.6,3.8 -8.26,48.87 -33.01,74.26 -53.31,74.26zm-35.54 64.73c54.58,0 111.69,-62.2 123.11,-137.08l17.77 0.63c11.43,0 20.95,-0.63 28.56,-1.9l1.27 0c5.71,0 12.69,-6.98 12.69,-13.96 0,-6.98 -6.98,-13.96 -13.96,-13.96 -6.34,1.9 -14.59,3.17 -24.11,3.17 -5.72,0 -12.7,-0.64 -19.68,-1.27 0,-65.37 -32.36,-114.23 -83.77,-114.23 -52.76,0 -99.94,53.32 -117.3,116.78l-0.1 0.32 -0.35 1.32c-3.6,13.6 -5.83,27.65 -6.45,41.72 -14.34,48.5 -50.81,81.65 -80.78,86.73 -3.17,0.63 -6.35,-1.27 -9.52,-3.81 -19.67,-12.06 10.15,-118.68 18.4,-158.66l1.27 -6.34c15.87,-78.7 -68.54,-92.66 -82.5,-52.04 -9.52,36.81 -16.5,68.54 -23.48,105.34 -1.17,5.47 -2.29,10.98 -3.3,16.5l-0.5 1.27c-6.35,14.6 -14.6,28.56 -24.12,42.52 -9.52,13.97 -19.67,24.75 -29.19,33 -9.52,8.25 -19.04,10.16 -27.92,6.98 -6.99,-4.44 -10.79,-16.5 -12.7,-36.8 -1.9,-19.68 -1.27,-43.16 0.64,-69.81 1.9,-26.66 3.17,-44.43 4.44,-53.31 25.39,-10.79 50.77,-33 76.79,-65.37 26.02,-32.36 48.23,-69.17 66.63,-111.05 18.41,-41.89 29.2,-82.5 33,-121.22 3.81,-38.71 -3.17,-70.44 -21.57,-94.55 -11.43,-13.97 -27.29,-21.58 -47.6,-22.22 -42.52,0.64 -77.42,17.77 -103.44,52.68 -26.02,34.9 -46.33,79.32 -60.93,133.27 -14.59,53.94 -24.75,110.42 -30.46,168.17 -3.17,-0.63 -3.8,2.54 -2.54,8.89 -10.78,-5.72 -19.03,-10.16 -25.38,-12.7 -27.29,-9.52 -53.31,-5.07 -79.33,13.33 -26.02,18.4 -46.33,46.33 -60.29,83.14 -6.69,19.73 -10.56,38.59 -11.51,56.74 -5.89,15.01 -13.72,31.47 -22.76,46.06 -7.62,12.06 -15.87,22.85 -24.75,30.47 -7.62,6.34 -14.6,10.15 -21.58,10.15 -3.17,-0.63 -6.34,-1.27 -9.52,-3.81 -19.67,-12.06 10.16,-119.31 18.41,-159.29l1.27 -6.34c15.86,-78.7 -68.54,-92.66 -83.14,-52.04 -9.52,36.81 -15.87,68.54 -23.48,105.34 -5.08,24.75 -8.89,50.77 -6.98,73.62l-1.27 1.9c-7.62,12.06 -16.5,22.85 -25.39,30.47 -6.98,6.34 -14.59,10.15 -21.57,10.15 -3.18,-0.63 -6.35,-1.27 -9.52,-3.81 -19.67,-12.06 10.15,-119.31 18.4,-159.29l1.27 -6.34c15.87,-78.7 -68.54,-92.66 -82.5,-52.04 -7.79,30.13 -13.46,56.86 -19.43,85.76 -1.81,1.17 -3.27,2.84 -4.05,4.99 -28.56,97.73 -91.38,154.85 -118.67,52.67 -10.16,-62.83 10.79,-165 40.61,-281.13 38.08,6.34 76.16,7.61 107.89,-11.43 5.71,-3.81 8.25,-12.06 5.07,-18.4 -3.17,-6.35 -10.78,-8.89 -16.5,-5.08 -24.75,14.6 -55.84,13.96 -88.21,8.89 14.6,-48.24 31.1,-97.74 48.87,-147.87 14.59,-31.1 -103.44,-43.15 -114.23,-8.89 -6.98,20.31 -24.75,72.35 -41.89,136.45 -22.21,-0.64 -42.52,3.17 -58.38,16.5 -5.08,4.44 -6.35,12.69 -1.91,19.04 3.81,5.71 11.43,6.98 17.14,2.54 8.88,-7.62 21.57,-10.79 36.17,-10.79 -17.92,70 -34.49,151.52 -38.43,223.38 -13.09,-0.05 -36.42,-0.63 -50.41,-0.63 -8.25,-152.95 -135.81,-191.66 -189.12,-325.56 -14.59,-37.44 88.85,-127.56 165.64,52.67 5.07,15.87 94.56,22.21 67.9,-26.65 -28.56,-89.48 -111.06,-131.37 -180.87,-130.73 -31.09,0 -66.63,3.17 -86.94,20.94 -185.31,160.56 120.58,283.04 131.37,419.48 -102.18,14.6 -154.21,47.6 -185.95,81.87 -12.69,13.96 -20.94,28.56 -24.75,41.88 -3.8,15.23 -1.9,29.83 5.72,41.25 52.67,83.14 272.88,-17.13 294.46,-145.96 10.14,0.6 38.19,0.07 52.08,0.01 -0.49,104.75 31.75,180.55 136.4,152.93 22.71,-9.85 53.52,-28.67 79.15,-69.36 2.89,37.69 22.12,67.56 80.14,71.9 26.02,1.27 50.13,-7.61 62.82,-18.4 5.72,-5.08 12.06,-12.06 17.77,-19.04 10.79,20.31 32.37,34.9 71.08,37.44 23.48,1.27 50.14,-7.61 62.19,-18.4 11.43,-9.52 21.58,-22.21 30.47,-36.81 1.9,-3.03 3.74,-6.16 5.53,-9.32 8.62,30.14 25.42,50.42 50.95,61.36 31.73,5.08 57.75,1.27 77.42,-11.42 19.68,-12.7 33.64,-34.27 41.26,-64.73 5.71,33.63 19.03,57.11 39.34,70.44 19.67,13.32 39.98,15.86 60.29,7.61 30.24,-12.95 55.68,-34.33 77.48,-62.91 4.97,33.69 25.4,59.52 79.27,63.55 13.96,0.63 50.13,-7.62 62.19,-18.41 17.76,-9.02 34.31,-25.67 47.34,-46.86 11.2,40.77 39.01,67.81 77.05,67.81zm-182.14 -292.56c22.85,0 41.88,-19.04 41.88,-41.89 0,-22.84 -19.03,-41.88 -41.88,-41.88 -23.48,0 -41.89,19.04 -41.89,41.88 0,22.85 18.41,41.89 41.89,41.89zm-166.9 46.96c25.38,-12.69 49.5,-36.81 72.35,-72.98 22.84,-36.18 41.25,-75.52 55.21,-119.31 13.32,-43.16 19.04,-81.87 17.13,-116.14 -0.63,-10.79 -3.17,-16.5 -6.98,-17.13 -21.58,-4.44 -40.61,7.61 -57.11,35.54 -16.5,28.56 -30.47,62.82 -42.52,104.07 -12.06,41.26 -20.95,79.97 -27.29,115.51 -6.35,35.53 -10.16,59.02 -10.79,70.44zm-159.29 179.6c13.96,5.07 24.75,5.07 33,-0.64 8.25,-5.08 14.6,-20.94 20.31,-48.23 6.34,-32.37 10.79,-55.21 12.69,-69.17 1.9,-13.33 -3.81,-21.58 -16.5,-24.75 -14.6,-5.08 -28.56,-2.54 -41.89,6.98 -13.32,10.15 -24.11,25.38 -31.09,45.06 -6.98,19.67 -8.25,38.07 -3.81,55.21 4.44,17.13 13.33,29.19 27.29,35.54zm-790.74 -78.06c-93.29,13.32 -138.98,41.88 -167.54,71.71 -9.52,10.15 -15.23,19.67 -17.77,28.56 -1.27,6.98 -0.63,12.69 1.91,17.13 5.07,7.62 16.5,12.06 34.27,10.79 69.17,-3.81 140.88,-50.77 149.13,-128.19zm-254.48 -272.89c-9.52,41.25 -18.41,84.41 -26.66,126.93 29.83,0.63 57.12,0.63 80.6,0.63 6.98,0 13.33,5.71 13.33,13.33 0,7.61 -6.35,13.32 -13.33,13.32 -24.75,0 -53.94,0 -85.04,-0.63 -9.52,50.77 -17.13,99.63 -22.85,142.79 -8.25,14.59 -92.02,-2.54 -90.75,-14.6 1.27,-13.32 10.79,-71.08 20.31,-130.73 -29.19,-1.9 -57.75,-3.17 -85.04,-5.71 -6.98,-0.64 -12.69,-7.62 -12.06,-14.6 0.64,-7.61 6.99,-13.32 14.6,-12.69 27.29,2.54 57.12,4.44 86.94,5.71 11.43,-68.54 22.22,-133.9 22.22,-133.9 1.26,-33 102.17,-4.45 97.73,10.15zm-282.41 205.62c0.64,-11.43 0.64,-23.48 -0.63,-33.64 -0.64,-6.34 -2.54,-12.05 -4.45,-15.23 -0.63,-0.63 -1.26,-1.27 -1.26,-1.27 -2.54,0.64 -5.72,1.91 -9.52,5.08 -12.7,16.5 1.9,38.08 15.86,45.06zm-302.71 38.71c46.96,-5.71 53.94,-66 45.06,-63.46 -19.67,9.52 -33.64,25.38 -45.06,63.46zm-369.99 -24.75c3.81,-5.71 10.79,-6.35 15.87,-1.9 5.08,4.44 5.71,12.69 1.9,17.77 -36.17,51.4 -45.69,89.48 -39.34,114.86 76.15,209.43 250.67,-338.89 199.9,-438.52 -19.04,-36.81 -68.54,-48.23 -165.63,135.17 0,0.64 -1.27,1.27 -1.91,2.54 -34.9,140.89 -64.73,291.29 -67.9,357.29 -6.98,19.68 -106.62,24.12 -100.91,-25.38 3.81,-142.16 78.7,-444.87 103.45,-532.45 -13.33,5.08 -26.02,11.42 -38.71,19.04 -6.35,4.44 -14.6,1.9 -18.41,-4.44 -3.81,-6.98 -1.9,-15.23 4.44,-19.04 17.14,-10.79 34.91,-19.04 52.68,-24.75 10.79,-3.17 20.94,-5.71 32.36,-7.62 6.98,-1.9 14.6,-2.53 22.85,-2.53l1.27 -0.64c0.63,0 1.9,0 2.54,0.64 34.27,0 71.71,12.05 66,30.46 -8.89,24.75 -17.14,52.67 -26.02,83.13 41.25,-57.75 99.63,-110.42 161.19,-83.13 183.41,80.59 22.85,628.91 -199.27,567.98 -24.75,-6.34 -43.15,-23.48 -50.13,-50.13 -8.25,-33 2.53,-79.97 43.78,-138.35z"/>
 </g>
</svg>
